HIERARCHY
ROOT Hips
{
	OFFSET 0.000000 87.230942 0.000000
	CHANNELS 6 Xposition Yposition Zposition Xrotation Yrotation Zrotation
	JOINT Pelvis
	{
		OFFSET 0.000000 0.000000 0.000000
		CHANNELS 3 Xrotation Yrotation Zrotation
		JOINT LeftUpLeg
		{
			OFFSET 12.017000 -9.376404 -2.439400
			CHANNELS 3 Xrotation Yrotation Zrotation
			JOINT LeftLeg
			{
				OFFSET -0.007312 -32.846973 2.110600
				CHANNELS 3 Xrotation Yrotation Zrotation
				JOINT LeftFoot
				{
					OFFSET 0.007312 -32.065170 -0.570400
					CHANNELS 3 Xrotation Yrotation Zrotation
					JOINT LeftToeBase
					{
						OFFSET 0.728300 -11.045900 13.180700
						CHANNELS 3 Xrotation Yrotation Zrotation
						End Site
						{
							OFFSET 0.000000 17.212589 0.000000
						}
					}
				}
				JOINT LeftPantLeg
				{
					OFFSET 0.002788 -16.709013 -3.143600
					CHANNELS 3 Xrotation Yrotation Zrotation
					End Site
					{
						OFFSET -0.605125 24.528742 0.000000
					}
				}
			}
			JOINT Left_Butt
			{
				OFFSET -6.630234 1.326584 -3.183700
				CHANNELS 3 Xrotation Yrotation Zrotation
				End Site
				{
					OFFSET -0.498041 20.188049 0.000000
				}
			}
		}
		JOINT RightUpLeg
		{
			OFFSET -11.717000 -9.376404 -2.439400
			CHANNELS 3 Xrotation Yrotation Zrotation
			JOINT RightLeg
			{
				OFFSET -0.003241 -32.846912 2.110600
				CHANNELS 3 Xrotation Yrotation Zrotation
				JOINT RightFoot
				{
					OFFSET 0.003241 -32.065136 -0.570500
					CHANNELS 3 Xrotation Yrotation Zrotation
					JOINT RightToeBase
					{
						OFFSET -0.728300 -11.045901 13.180700
						CHANNELS 3 Xrotation Yrotation Zrotation
						End Site
						{
							OFFSET 0.000000 17.212593 0.000000
						}
					}
				}
				JOINT RightPantLeg
				{
					OFFSET 0.008142 -16.708982 -3.143700
					CHANNELS 3 Xrotation Yrotation Zrotation
					End Site
					{
						OFFSET 0.605088 24.528715 0.000000
					}
				}
			}
			JOINT Right_Butt
			{
				OFFSET 6.630732 1.326584 -3.183700
				CHANNELS 3 Xrotation Yrotation Zrotation
				End Site
				{
					OFFSET 0.498015 20.188240 0.000000
				}
			}
		}
	}
	JOINT Spine
	{
		OFFSET -0.062400 7.848404 3.918300
		CHANNELS 3 Xrotation Yrotation Zrotation
		JOINT Spine1
		{
			OFFSET -0.072800 11.422302 0.713400
			CHANNELS 3 Xrotation Yrotation Zrotation
			JOINT Spine2
			{
				OFFSET -0.083200 13.054001 -1.931600
				CHANNELS 3 Xrotation Yrotation Zrotation
				JOINT Neck
				{
					OFFSET -0.092200 14.121796 -5.138800
					CHANNELS 3 Xrotation Yrotation Zrotation
					JOINT Head
					{
						OFFSET 0.000200 10.447403 -0.842000
						CHANNELS 3 Xrotation Yrotation Zrotation
						JOINT Visor
						{
							OFFSET 0.457100 25.671204 16.550400
							CHANNELS 3 Xrotation Yrotation Zrotation
							End Site
							{
								OFFSET 0.000000 26.061493 0.000000
							}
						}
						JOINT HairMidA
						{
							OFFSET 0.459400 31.585403 8.437400
							CHANNELS 3 Xrotation Yrotation Zrotation
							End Site
							{
								OFFSET 0.000000 26.061493 0.000000
							}
						}
						JOINT HairMidB
						{
							OFFSET 0.464000 33.309204 -8.389700
							CHANNELS 3 Xrotation Yrotation Zrotation
							End Site
							{
								OFFSET 0.000000 26.061493 0.000000
							}
						}
						JOINT HairMidC
						{
							OFFSET 0.466600 27.991196 -17.375099
							CHANNELS 3 Xrotation Yrotation Zrotation
							End Site
							{
								OFFSET 0.000000 26.061493 0.000000
							}
						}
						JOINT HairMidD
						{
							OFFSET 0.467700 17.888092 -21.169500
							CHANNELS 3 Xrotation Yrotation Zrotation
							End Site
							{
								OFFSET 0.000000 26.061493 0.000000
							}
						}
						JOINT HairMidE
						{
							OFFSET 5.325700 3.514603 -14.369699
							CHANNELS 3 Xrotation Yrotation Zrotation
							End Site
							{
								OFFSET 0.000000 26.061493 0.000000
							}
						}
						JOINT HairMidF
						{
							OFFSET -4.394100 3.514603 -14.372400
							CHANNELS 3 Xrotation Yrotation Zrotation
							End Site
							{
								OFFSET 0.000000 26.061493 0.000000
							}
						}
						JOINT HairLeftA
						{
							OFFSET 15.319900 25.746506 2.623300
							CHANNELS 3 Xrotation Yrotation Zrotation
							End Site
							{
								OFFSET 0.000000 26.061493 0.000000
							}
						}
						JOINT HairLeftB
						{
							OFFSET 12.619500 29.289398 -8.731499
							CHANNELS 3 Xrotation Yrotation Zrotation
							End Site
							{
								OFFSET 0.000000 26.061493 0.000000
							}
						}
						JOINT HairLeftC
						{
							OFFSET 15.714800 15.959900 2.909800
							CHANNELS 3 Xrotation Yrotation Zrotation
							End Site
							{
								OFFSET 0.000000 26.061493 0.000000
							}
						}
						JOINT HairLeftD
						{
							OFFSET 16.101700 18.437408 -7.553200
							CHANNELS 3 Xrotation Yrotation Zrotation
							End Site
							{
								OFFSET 0.000000 26.061493 0.000000
							}
						}
						JOINT HairLeftE
						{
							OFFSET 9.731900 17.915009 -18.316799
							CHANNELS 3 Xrotation Yrotation Zrotation
							End Site
							{
								OFFSET 0.000000 26.061493 0.000000
							}
						}
						JOINT HairLeftF
						{
							OFFSET 11.204300 4.953598 -9.668100
							CHANNELS 3 Xrotation Yrotation Zrotation
							End Site
							{
								OFFSET 0.000000 26.061493 0.000000
							}
						}
						JOINT HairRightA
						{
							OFFSET -14.397900 25.746307 2.615100
							CHANNELS 3 Xrotation Yrotation Zrotation
							End Site
							{
								OFFSET 0.000000 26.061493 0.000000
							}
						}
						JOINT HairRightB
						{
							OFFSET -11.691200 29.289200 -8.738199
							CHANNELS 3 Xrotation Yrotation Zrotation
							End Site
							{
								OFFSET 0.000000 26.061493 0.000000
							}
						}
						JOINT HairRightC
						{
							OFFSET -14.792900 15.959702 2.901400
							CHANNELS 3 Xrotation Yrotation Zrotation
							End Site
							{
								OFFSET 0.000000 26.061493 0.000000
							}
						}
						JOINT HairRightD
						{
							OFFSET -15.174000 18.437195 -7.561900
							CHANNELS 3 Xrotation Yrotation Zrotation
							End Site
							{
								OFFSET 0.000000 26.061493 0.000000
							}
						}
						JOINT HairRightE
						{
							OFFSET -8.798200 17.914902 -18.322001
							CHANNELS 3 Xrotation Yrotation Zrotation
							End Site
							{
								OFFSET 0.000000 26.061493 0.000000
							}
						}
						JOINT HairRightF
						{
							OFFSET -10.275200 4.953506 -9.674099
							CHANNELS 3 Xrotation Yrotation Zrotation
							End Site
							{
								OFFSET 0.000000 26.061493 0.000000
							}
						}
					}
				}
				JOINT LeftShoulder
				{
					OFFSET 5.133500 7.341202 -1.867600
					CHANNELS 3 Xrotation Yrotation Zrotation
					JOINT LeftArm
					{
						OFFSET 8.072663 0.936867 -2.176600
						CHANNELS 3 Xrotation Yrotation Zrotation
						JOINT LeftForeArm
						{
							OFFSET 31.271999 0.000000 0.000000
							CHANNELS 3 Xrotation Yrotation Zrotation
							JOINT LeftHand
							{
								OFFSET 31.771030 0.000000 0.000000
								CHANNELS 3 Xrotation Yrotation Zrotation
								JOINT LeftHandThumb1
								{
									OFFSET 2.886520 -2.557846 4.416640
									CHANNELS 3 Xrotation Yrotation Zrotation
									JOINT LeftHandThumb2
									{
										OFFSET 2.371025 -1.368912 1.368911
										CHANNELS 3 Xrotation Yrotation Zrotation
										JOINT LeftHandThumb3
										{
											OFFSET 2.243378 -1.295212 1.295213
											CHANNELS 3 Xrotation Yrotation Zrotation
											End Site
											{
												OFFSET -0.332611 2.876945 0.020015
											}
										}
									}
								}
								JOINT LeftHandIndex1
								{
									OFFSET 8.568985 -0.641945 3.119977
									CHANNELS 3 Xrotation Yrotation Zrotation
									JOINT LeftHandIndex2
									{
										OFFSET 3.348503 0.000000 0.000000
										CHANNELS 3 Xrotation Yrotation Zrotation
										JOINT LeftHandIndex3
										{
											OFFSET 3.314552 0.000000 0.000000
											CHANNELS 3 Xrotation Yrotation Zrotation
											End Site
											{
												OFFSET -1.032898 3.075485 0.678796
											}
										}
									}
								}
								JOINT LeftHandMiddle1
								{
									OFFSET 8.124603 0.000000 0.000000
									CHANNELS 3 Xrotation Yrotation Zrotation
									JOINT LeftHandMiddle2
									{
										OFFSET 4.166275 0.000000 0.000000
										CHANNELS 3 Xrotation Yrotation Zrotation
										JOINT LeftHandMiddle3
										{
											OFFSET 3.018135 0.000000 0.000000
											CHANNELS 3 Xrotation Yrotation Zrotation
											End Site
											{
												OFFSET -1.032700 2.767982 0.617226
											}
										}
									}
								}
								JOINT LeftHandRing1
								{
									OFFSET 8.571686 -0.031357 -2.884048
									CHANNELS 3 Xrotation Yrotation Zrotation
									JOINT LeftHandRing2
									{
										OFFSET 3.671181 0.000000 0.000000
										CHANNELS 3 Xrotation Yrotation Zrotation
										JOINT LeftHandRing3
										{
											OFFSET 2.728851 0.000000 0.000000
											CHANNELS 3 Xrotation Yrotation Zrotation
											End Site
											{
												OFFSET -0.815796 2.539223 0.577389
											}
										}
									}
								}
								JOINT LeftHandPinky1
								{
									OFFSET 7.854515 -0.675232 -5.213020
									CHANNELS 3 Xrotation Yrotation Zrotation
									JOINT LeftHandPinky2
									{
										OFFSET 3.068596 0.000000 0.000000
										CHANNELS 3 Xrotation Yrotation Zrotation
										JOINT LeftHandPinky3
										{
											OFFSET 2.396042 0.000000 0.000000
											CHANNELS 3 Xrotation Yrotation Zrotation
											End Site
											{
												OFFSET -0.524597 2.267998 0.567429
											}
										}
									}
								}
							}
							JOINT LeftSleeve
							{
								OFFSET 19.684509 -0.200119 0.476146
								CHANNELS 3 Xrotation Yrotation Zrotation
								End Site
								{
									OFFSET -0.031017 25.731133 -0.002868
								}
							}
						}
					}
				}
				JOINT RightShoulder
				{
					OFFSET -4.395900 7.341202 -1.870200
					CHANNELS 3 Xrotation Yrotation Zrotation
					JOINT RightArm
					{
						OFFSET -8.071453 0.936867 -2.181100
						CHANNELS 3 Xrotation Yrotation Zrotation
						JOINT RightForeArm
						{
							OFFSET -31.272011 0.000000 0.000000
							CHANNELS 3 Xrotation Yrotation Zrotation
							JOINT RightHand
							{
								OFFSET -31.771019 0.000000 0.000000
								CHANNELS 3 Xrotation Yrotation Zrotation
								JOINT RightHandThumb1
								{
									OFFSET -2.886520 -2.557808 4.416626
									CHANNELS 3 Xrotation Yrotation Zrotation
									JOINT RightHandThumb2
									{
										OFFSET -2.371056 -1.368927 1.368928
										CHANNELS 3 Xrotation Yrotation Zrotation
										JOINT RightHandThumb3
										{
											OFFSET -2.243362 -1.295204 1.295206
											CHANNELS 3 Xrotation Yrotation Zrotation
											End Site
											{
												OFFSET 0.332642 2.876938 0.020047
											}
										}
									}
								}
								JOINT RightHandIndex1
								{
									OFFSET -8.568993 -0.641953 3.120017
									CHANNELS 3 Xrotation Yrotation Zrotation
									JOINT RightHandIndex2
									{
										OFFSET -3.348518 0.000000 0.000000
										CHANNELS 3 Xrotation Yrotation Zrotation
										JOINT RightHandIndex3
										{
											OFFSET -3.314552 0.000000 0.000000
											CHANNELS 3 Xrotation Yrotation Zrotation
											End Site
											{
												OFFSET 1.032898 3.075478 0.678804
											}
										}
									}
								}
								JOINT RightHandMiddle1
								{
									OFFSET -8.124588 0.000000 0.000000
									CHANNELS 3 Xrotation Yrotation Zrotation
									JOINT RightHandMiddle2
									{
										OFFSET -4.166275 0.000000 0.000000
										CHANNELS 3 Xrotation Yrotation Zrotation
										JOINT RightHandMiddle3
										{
											OFFSET -3.018097 0.000000 0.000000
											CHANNELS 3 Xrotation Yrotation Zrotation
											End Site
											{
												OFFSET 1.032700 2.767937 0.617197
											}
										}
									}
								}
								JOINT RightHandRing1
								{
									OFFSET -8.571747 -0.031349 -2.884061
									CHANNELS 3 Xrotation Yrotation Zrotation
									JOINT RightHandRing2
									{
										OFFSET -3.671204 0.000000 0.000000
										CHANNELS 3 Xrotation Yrotation Zrotation
										JOINT RightHandRing3
										{
											OFFSET -2.728874 0.000000 0.000000
											CHANNELS 3 Xrotation Yrotation Zrotation
											End Site
											{
												OFFSET 0.815804 2.539261 0.577413
											}
										}
									}
								}
								JOINT RightHandPinky1
								{
									OFFSET -7.854561 -0.675247 -5.212970
									CHANNELS 3 Xrotation Yrotation Zrotation
									JOINT RightHandPinky2
									{
										OFFSET -3.068550 0.000000 0.000000
										CHANNELS 3 Xrotation Yrotation Zrotation
										JOINT RightHandPinky3
										{
											OFFSET -2.395981 0.000000 0.000000
											CHANNELS 3 Xrotation Yrotation Zrotation
											End Site
											{
												OFFSET 0.524605 2.267952 0.567413
											}
										}
									}
								}
							}
							JOINT RightSleeve
							{
								OFFSET -19.684753 -0.200165 0.476065
								CHANNELS 3 Xrotation Yrotation Zrotation
								End Site
								{
									OFFSET 0.031342 25.731255 -0.002917
								}
							}
						}
					}
				}
				JOINT Hood
				{
					OFFSET 0.369700 14.447800 -5.317800
					CHANNELS 3 Xrotation Yrotation Zrotation
					JOINT Hood1
					{
						OFFSET 0.001700 -5.553802 -5.895100
						CHANNELS 3 Xrotation Yrotation Zrotation
						JOINT Hood2
						{
							OFFSET -0.000200 -8.380501 0.763600
							CHANNELS 3 Xrotation Yrotation Zrotation
							End Site
							{
								OFFSET 0.000000 8.415215 0.000000
							}
						}
					}
				}
				JOINT Left_Breast
				{
					OFFSET 5.682500 3.120102 3.188800
					CHANNELS 3 Xrotation Yrotation Zrotation
					End Site
					{
						OFFSET 0.000000 10.528564 0.000000
					}
				}
				JOINT Right_Breast
				{
					OFFSET -4.947600 3.120102 3.185900
					CHANNELS 3 Xrotation Yrotation Zrotation
					End Site
					{
						OFFSET 0.000000 10.528564 0.000000
					}
				}
				JOINT Whistle
				{
					OFFSET 0.368200 11.471298 0.095400
					CHANNELS 3 Xrotation Yrotation Zrotation
					JOINT Whistle1
					{
						OFFSET -0.002000 -6.349899 7.479800
						CHANNELS 3 Xrotation Yrotation Zrotation
						JOINT Whistle2
						{
							OFFSET -0.001300 -8.217598 4.717600
							CHANNELS 3 Xrotation Yrotation Zrotation
							End Site
							{
								OFFSET 0.000000 9.475479 0.000000
							}
						}
					}
				}
			}
		}
		JOINT Belly
		{
			OFFSET 0.212400 1.593002 3.163700
			CHANNELS 3 Xrotation Yrotation Zrotation
			End Site
			{
				OFFSET 0.000000 7.496635 0.000000
			}
		}
	}
	JOINT FitGrandmaFacialAnim_Joint
	{
		OFFSET 1.150000 -86.211197 -1.220100
		CHANNELS 3 Xrotation Yrotation Zrotation
		End Site
		{
			OFFSET 0.000000 31.666618 0.000000
		}
	}
}
MOTION
Frames: 4
Frame Time: 0.016667
0.810689 64.786224 3.044176 16.573266 -8.459871 -4.541748 -0.000001 0.000000 -0.000000 -82.476788 -1.121086 1.855118 51.245106 9.904232 -4.089515 7.743580 25.669210 12.828507 -0.000000 0.000000 0.000000 -0.000001 -0.000000 0.000000 -0.000002 -0.000000 -0.000001 15.966284 -14.262788 7.069295 44.235980 -9.116552 9.666961 -32.290570 -11.259411 15.211538 0.000001 0.000003 -0.000002 -0.000000 0.000000 -0.000003 0.000002 0.000001 -0.000001 10.897574 14.019071 -8.903428 2.878198 4.087947 -0.126407 2.848461 4.312291 -0.311452 -0.690418 -2.335956 4.374013 -6.949600 -9.364418 11.092254 0.000001 0.000000 0.000000 0.000001 0.000000 0.000000 0.000001 0.000000 0.000000 0.000001 0.000000 0.000000 0.000001 0.000000 0.000000 0.000001 0.000000 0.000000 0.000001 0.000000 0.000000 0.000001 0.000000 0.000000 0.000001 0.000000 0.000000 0.000001 0.000000 0.000000 0.000001 0.000000 0.000000 0.000001 0.000000 0.000000 0.000001 0.000000 0.000000 0.000001 0.000000 0.000000 0.000001 0.000000 0.000000 0.000001 0.000000 0.000000 0.000001 0.000000 0.000000 0.000001 0.000000 0.000000 0.000001 0.000000 0.000000 1.187664 -1.370113 -14.873637 -9.759265 30.208404 -41.048853 0.000000 -11.762797 -0.000001 17.749450 -17.726713 21.007621 -5.456664 -6.701467 3.223899 8.077436 27.563300 1.095402 0.000002 0.000002 -0.000001 -1.812258 -6.056789 -12.583240 0.237191 1.651683 -16.342800 0.000002 -0.000001 -0.000003 -1.249863 -0.637585 -18.645259 0.387944 2.098226 -20.947910 -0.000001 0.000001 0.000001 0.049635 3.688808 -26.109450 0.502181 2.375033 -23.874320 -0.000000 -0.000002 0.000002 0.229215 4.355145 -33.121179 0.780428 2.923311 -29.888689 -0.000000 0.000003 -0.000000 -0.000001 0.000002 0.000002 2.870349 11.957085 -6.152309 -33.803689 70.877522 6.927821 -0.000534 94.709507 0.000553 17.111796 20.467031 -11.105447 -15.303015 26.927630 3.986250 9.854553 -45.625974 -5.441331 -0.000000 0.000002 -0.000000 0.782860 -4.716600 13.868245 0.169899 -1.247737 15.507868 -0.000004 0.000000 0.000003 1.576770 -6.016255 32.822279 0.816463 -2.636028 34.413625 0.000000 -0.000000 -0.000002 2.347870 -6.542683 43.827408 1.218018 -3.142189 42.367868 0.000001 -0.000000 -0.000001 3.008745 -7.082371 54.088753 1.765788 -3.652446 51.591451 -0.000004 -0.000000 0.000001 0.000001 0.000001 0.000000 0.000003 0.000001 -0.000000 0.000003 0.000001 -0.000000 0.000003 0.000001 -0.000000 0.000003 0.000001 -0.000000 0.000003 0.000001 -0.000000 0.000003 0.000001 -0.000000 0.000001 -0.000002 0.000001 0.000001 -0.000002 0.000001 -0.000001 0.000000 -0.000000 -0.000001 0.000000 -0.000000 
0.085080 64.894058 4.397270 18.141689 -8.090306 -4.559999 0.000001 -0.000000 -0.000000 -84.201500 -1.250300 2.142933 53.478814 9.062613 -3.999511 6.129587 25.579002 12.012573 0.000000 0.000000 0.000000 -0.000000 -0.000000 -0.000001 -0.000000 -0.000000 -0.000000 9.665030 -14.168167 4.413249 50.527216 -8.722079 9.834729 -30.090088 -12.052419 16.249367 0.000001 0.000003 -0.000004 -0.000001 0.000001 0.000002 0.000002 -0.000003 -0.000000 11.348110 13.439524 -9.061169 2.886033 3.978105 -0.232992 2.857347 4.195421 -0.413712 -0.775486 -2.317382 4.285788 -7.176066 -9.471881 10.982037 -0.000001 -0.000000 0.000000 -0.000001 -0.000000 0.000000 -0.000001 -0.000000 0.000000 -0.000001 -0.000000 0.000000 -0.000001 -0.000000 0.000000 -0.000001 -0.000000 0.000000 -0.000001 -0.000000 0.000000 -0.000001 -0.000000 0.000000 -0.000001 -0.000000 0.000000 -0.000001 -0.000000 0.000000 -0.000001 -0.000000 0.000000 -0.000001 -0.000000 0.000000 -0.000001 -0.000000 0.000000 -0.000001 -0.000000 0.000000 -0.000001 -0.000000 0.000000 -0.000001 -0.000000 0.000000 -0.000001 -0.000000 0.000000 -0.000001 -0.000000 0.000000 -0.000001 -0.000000 0.000000 1.200900 -1.794890 -15.693772 -10.576663 29.125129 -39.831648 -0.000003 -14.202302 0.000007 18.131900 -16.995300 22.228622 -5.549650 -6.736296 3.295551 8.061864 27.560107 1.140160 -0.000001 -0.000001 0.000001 -1.804115 -6.064278 -12.527721 0.233820 1.640163 -16.225640 0.000002 -0.000003 -0.000004 -1.242795 -0.654475 -18.510851 0.385032 2.090607 -20.868243 -0.000000 -0.000005 0.000001 0.044783 3.667164 -25.898576 0.498592 2.366939 -23.787826 0.000000 -0.000001 -0.000002 0.274472 4.440113 -32.904928 0.769659 2.904535 -29.677063 -0.000001 -0.000000 0.000000 0.000000 0.000001 0.000003 2.895096 12.404891 -5.753553 -30.219974 69.244246 3.681461 -0.000326 96.122331 0.000333 20.583419 21.050430 -13.126473 -15.466366 26.941181 3.833669 9.820579 -45.228655 -5.419530 0.000000 0.000004 -0.000001 0.750055 -4.663059 13.088637 0.153308 -1.186305 14.726127 0.000002 0.000001 -0.000000 1.442560 -5.897351 30.789578 0.743593 -2.526492 32.796089 -0.000001 0.000001 -0.000003 2.163471 -6.430865 41.453726 1.092401 -2.998882 40.023030 0.000001 -0.000001 -0.000003 2.840321 -7.022740 51.977268 1.490531 -3.416663 47.129221 -0.000001 0.000001 0.000001 -0.000000 -0.000001 -0.000001 0.000000 0.000000 -0.000000 0.000000 0.000000 -0.000000 0.000000 0.000000 -0.000000 0.000000 0.000000 -0.000000 0.000000 0.000000 -0.000000 0.000000 0.000000 -0.000000 -0.000003 0.000001 -0.000001 -0.000003 0.000001 -0.000001 -0.000001 0.000000 0.000001 0.000001 -0.000000 -0.000000 
-0.600481 65.011841 5.761118 19.749851 -7.735328 -4.599181 0.000001 0.000000 0.000001 -85.832242 -1.396518 2.420792 55.506792 8.248562 -3.911711 4.543178 25.507427 11.262334 0.000000 -0.000002 -0.000000 0.000000 -0.000001 0.000001 -0.000003 -0.000000 0.000000 3.767619 -13.861299 1.716545 55.625795 -7.907716 9.914511 -26.707510 -12.671477 17.155306 0.000001 -0.000001 -0.000001 -0.000002 0.000001 0.000000 0.000000 0.000001 -0.000000 11.806014 12.834737 -9.244762 2.894021 3.864284 -0.347309 2.866432 4.074823 -0.524103 -0.868211 -2.297584 4.191817 -7.411892 -9.572890 10.876493 0.000001 -0.000000 -0.000000 0.000001 -0.000000 -0.000000 0.000001 -0.000000 -0.000000 0.000001 -0.000000 -0.000000 0.000001 -0.000000 -0.000000 0.000001 -0.000000 -0.000000 0.000001 -0.000000 -0.000000 0.000001 -0.000000 -0.000000 0.000001 -0.000000 -0.000000 0.000001 -0.000000 -0.000000 0.000001 -0.000000 -0.000000 0.000001 -0.000000 -0.000000 0.000001 -0.000000 -0.000000 0.000001 -0.000000 -0.000000 0.000001 -0.000000 -0.000000 0.000001 -0.000000 -0.000000 0.000001 -0.000000 -0.000000 0.000001 -0.000000 -0.000000 0.000001 -0.000000 -0.000000 1.202254 -2.183951 -16.571277 -11.438030 28.007273 -38.630853 0.000003 -16.749036 -0.000021 18.480071 -16.138093 23.428259 -5.643238 -6.771491 3.367534 8.046187 27.556905 1.185217 0.000000 -0.000001 -0.000000 -1.795905 -6.071803 -12.471875 0.230460 1.628577 -16.107813 0.000000 -0.000001 -0.000003 -1.235644 -0.671464 -18.375625 0.382579 2.084157 -20.800781 -0.000001 -0.000002 0.000000 0.039980 3.645371 -25.686397 0.495646 2.360220 -23.716048 0.000000 0.000001 0.000003 0.319291 4.525964 -32.687335 0.758929 2.885657 -29.464712 -0.000003 0.000000 0.000000 -0.000001 -0.000000 -0.000000 2.921972 12.894766 -5.335070 -27.021027 67.470227 0.787268 -0.000172 97.583698 0.000176 24.180830 21.456150 -15.177642 -15.633615 26.955517 3.677460 9.785828 -44.821788 -5.396997 0.000000 -0.000001 0.000001 0.717153 -4.607636 12.288704 0.137023 -1.122560 13.918174 0.000000 0.000001 -0.000000 1.306886 -5.767757 28.660263 0.670839 -2.409932 31.106625 -0.000002 -0.000000 -0.000002 1.971113 -6.299221 38.969375 0.968391 -2.844890 37.590759 -0.000002 -0.000003 -0.000001 2.670736 -6.955905 49.823699 1.221433 -3.145903 42.430119 -0.000005 -0.000002 -0.000001 -0.000001 0.000003 0.000000 0.000003 0.000001 -0.000000 0.000003 0.000001 -0.000000 0.000003 0.000001 -0.000000 0.000003 0.000001 -0.000000 0.000003 0.000001 -0.000000 0.000003 0.000001 -0.000000 0.000003 0.000000 0.000000 0.000003 0.000000 0.000000 0.000002 0.000001 -0.000001 0.000001 0.000000 0.000001 
-1.251612 65.136200 7.134205 21.393010 -7.393730 -4.657220 0.000001 0.000000 0.000000 -87.379396 -1.556769 2.690596 57.355762 7.458084 -3.826017 2.979689 25.451566 10.568057 0.000000 0.000000 -0.000000 -0.000000 -0.000000 -0.000001 0.000002 -0.000000 -0.000000 -1.760942 -13.400105 -0.994167 59.609882 -6.646778 9.931651 -22.473542 -13.130133 17.816550 -0.000000 0.000003 -0.000003 -0.000001 0.000003 -0.000003 0.000001 -0.000001 0.000000 12.268198 12.210450 -9.448139 2.901918 3.747259 -0.467801 2.875570 3.951235 -0.641014 -0.967461 -2.276753 4.092978 -7.655644 -9.668309 10.774947 -0.000002 0.000000 -0.000000 -0.000002 0.000000 -0.000000 -0.000002 0.000000 -0.000000 -0.000002 0.000000 -0.000000 -0.000002 0.000000 -0.000000 -0.000002 0.000000 -0.000000 -0.000002 0.000000 -0.000000 -0.000002 0.000000 -0.000000 -0.000002 0.000000 -0.000000 -0.000002 0.000000 -0.000000 -0.000002 0.000000 -0.000000 -0.000002 0.000000 -0.000000 -0.000002 0.000000 -0.000000 -0.000002 0.000000 -0.000000 -0.000002 0.000000 -0.000000 -0.000002 0.000000 -0.000000 -0.000002 0.000000 -0.000000 -0.000002 0.000000 -0.000000 -0.000002 0.000000 -0.000000 1.192187 -2.545271 -17.494053 -12.336930 26.855235 -37.455111 -0.000005 -19.379951 -0.000003 18.788819 -15.181782 24.605555 -5.737370 -6.806999 3.439792 8.030433 27.553646 1.230515 0.000001 -0.000000 -0.000001 -1.787648 -6.079366 -12.415711 0.227101 1.616912 -15.989341 0.000000 0.000001 -0.000003 -1.228407 -0.688518 -18.239658 0.380522 2.078746 -20.744278 -0.000001 -0.000004 -0.000002 0.035240 3.623447 -25.473080 0.493226 2.354721 -23.657460 0.000002 0.000001 0.000001 0.363616 4.612638 -32.468500 0.748241 2.866690 -29.251740 0.000000 -0.000003 -0.000001 0.000001 0.000002 0.000004 2.947537 13.415549 -4.901024 -24.203561 65.584023 -1.746845 -0.000027 99.080732 0.000026 27.863634 21.684522 -17.233059 -15.804294 26.970537 3.518034 9.750378 -44.406526 -5.373811 0.000001 0.000004 -0.000002 0.684510 -4.550886 11.475702 0.121333 -1.057248 13.093358 -0.000002 -0.000000 0.000001 1.172690 -5.629145 26.469220 0.599710 -2.287995 29.371084 -0.000001 -0.000000 -0.000001 1.777384 -6.150724 36.414566 0.848410 -2.682014 35.102340 0.000001 -0.000002 0.000001 2.501528 -6.882170 47.643383 0.967613 -2.843859 37.575097 -0.000001 -0.000003 -0.000000 -0.000001 -0.000001 -0.000001 0.000000 0.000001 -0.000001 0.000000 0.000001 -0.000001 0.000000 0.000001 -0.000001 0.000000 0.000001 -0.000001 0.000000 0.000001 -0.000001 0.000000 0.000001 -0.000001 -0.000002 0.000000 -0.000000 -0.000002 0.000000 -0.000000 0.000002 -0.000000 -0.000000 0.000001 0.000000 0.000000 
